<svg xmlns="http://www.w3.org/2000/svg" width="41.074" height="40.893" viewBox="0 0 41.074 40.893"><defs><style>.a{fill:#ff6b6b;}</style></defs><g transform="translate(0 -1.127)"><g transform="translate(26.322 8.236)"><path class="a" d="M332.865,90.426a3.176,3.176,0,0,0-2.139-.685,3.082,3.082,0,0,0-1.911.542,1.485,1.485,0,0,0-.713,1.141.614.614,0,0,0,.22.506.76.76,0,0,0,.49.178.549.549,0,0,0,.376-.145,1.724,1.724,0,0,0,.277-.311,1.044,1.044,0,0,1,.426-.311,1.852,1.852,0,0,1,.781-.145,1.661,1.661,0,0,1,1.066.317,1.08,1.08,0,0,1,.4.9,1.414,1.414,0,0,1-.164.656,1.918,1.918,0,0,1-.328.479q-.164.162-.492.444l-.414.338a2.826,2.826,0,0,0-.856,2.227.956.956,0,0,0,.15.62.649.649,0,0,0,.506.169q.713,0,.713-.513a4.133,4.133,0,0,1,.114-1.112,1.639,1.639,0,0,1,.6-.77l.273-.228.373-.357q.115-.114.353-.406a3.233,3.233,0,0,0,.36-.528,3.638,3.638,0,0,0,.23-.578,2.307,2.307,0,0,0,.108-.7A2.177,2.177,0,0,0,332.865,90.426Z" transform="translate(-328.102 -89.741)"/></g><g transform="translate(27.89 16.864)"><path class="a" d="M349.223,197.569a.935.935,0,0,0-.685-.285.8.8,0,0,0-.642.285,1.077,1.077,0,0,0,0,1.362.792.792,0,0,0,.642.292.922.922,0,0,0,.685-.292.956.956,0,0,0,0-1.362Z" transform="translate(-347.654 -197.284)"/></g><g transform="translate(0 11.665)"><path class="a" d="M29.442,154.661a3.171,3.171,0,0,0-.6-.471l-4.972-2.962a3.439,3.439,0,0,0-4.195.53L18.548,152.9a.32.32,0,0,1-.355.068.656.656,0,0,0-.527,1.2,1.639,1.639,0,0,0,1.816-.349l1.125-1.139a2.127,2.127,0,0,1,2.593-.327l4.965,2.958A1.846,1.846,0,0,1,28.5,158.2l-.779.8a8.61,8.61,0,0,1-9.352,1.885A29.885,29.885,0,0,1,1.954,144.466a8.607,8.607,0,0,1,1.881-9.347l.8-.788a1.856,1.856,0,0,1,2.616.005,1.888,1.888,0,0,1,.275.338l2.956,4.953a2.127,2.127,0,0,1-.326,2.593l-1.148,1.143a1.641,1.641,0,0,0-.321,1.812,17.387,17.387,0,0,0,6.963,7.947A.656.656,0,1,0,16.33,152a16.082,16.082,0,0,1-6.442-7.355l0-.009a.319.319,0,0,1,.056-.349l1.142-1.138a3.439,3.439,0,0,0,.527-4.194l-2.97-4.976a3.192,3.192,0,0,0-4.927-.582l-.8.789A9.919,9.919,0,0,0,.738,144.961,31.2,31.2,0,0,0,17.877,162.1a9.921,9.921,0,0,0,10.779-2.177l.778-.8A3.161,3.161,0,0,0,29.442,154.661Z" transform="translate(0 -132.483)"/></g><g transform="translate(16.716 1.127)"><path class="a" d="M229.552,5.045a12.072,12.072,0,0,0-20.241,12.281.656.656,0,0,0,1.234-.447,10.76,10.76,0,1,1,3.724,4.983.657.657,0,0,0-.608-.091l-3.818,1.345,1.645-3.746a.656.656,0,1,0-1.2-.528l-1.819,4.143a1.124,1.124,0,0,0,1.4,1.512l3.9-1.376A12.071,12.071,0,0,0,229.552,5.045Z" transform="translate(-208.371 -1.127)"/></g></g></svg>